{"glyphs":{"0":{"ha":964,"x_min":0,"x_max":0,"o":"m 878 0 l 878 833 l 86 833 l 86 0 z m 264 683 l 699 683 l 699 150 l 264 150 z "},"1":{"ha":589,"x_min":0,"x_max":0,"o":"m 408 833 l 250 833 l 60 700 l 60 553 l 229 668 l 229 150 l 44 150 l 44 0 l 565 0 l 565 150 l 408 150 z "},"2":{"ha":861,"x_min":0,"x_max":0,"o":"m 785 0 l 785 150 l 251 150 l 251 161 l 785 497 l 785 833 l 74 833 l 74 683 l 607 683 l 607 563 l 74 214 l 74 0 z "},"3":{"ha":853,"x_min":0,"x_max":0,"o":"m 769 0 l 769 351 l 688 439 l 769 525 l 769 833 l 57 833 l 57 683 l 589 683 l 589 546 l 549 500 l 175 500 l 175 365 l 549 365 l 589 321 l 589 150 l 57 150 l 57 0 z "},"4":{"ha":876,"x_min":0,"x_max":0,"o":"m 739 279 l 739 833 l 543 833 l 46 390 l 46 136 l 561 136 l 561 0 l 739 0 l 739 136 l 822 136 l 822 279 z m 221 356 l 561 650 l 561 279 l 221 279 z "},"5":{"ha":863,"x_min":0,"x_max":0,"o":"m 786 0 l 786 399 l 672 515 l 267 515 l 267 683 l 786 683 l 786 833 l 90 833 l 90 381 l 561 381 l 608 332 l 607 150 l 90 150 l 90 0 z "},"6":{"ha":917,"x_min":0,"x_max":0,"o":"m 840 0 l 840 403 l 728 518 l 256 518 l 256 683 l 819 683 l 819 833 l 86 833 l 86 0 z m 256 389 l 622 389 l 669 333 l 669 143 l 256 143 z "},"7":{"ha":854,"x_min":0,"x_max":0,"o":"m 397 0 l 788 581 l 788 833 l 49 833 l 49 683 l 603 683 l 603 603 l 193 0 z "},"8":{"ha":960,"x_min":0,"x_max":0,"o":"m 875 0 l 875 343 l 793 431 l 875 510 l 875 833 l 83 833 l 83 510 l 165 431 l 83 343 l 83 0 z m 249 692 l 711 692 l 711 524 l 664 483 l 296 483 l 249 524 z m 249 317 l 296 364 l 664 364 l 711 317 l 711 142 l 249 142 z "},"9":{"ha":925,"x_min":0,"x_max":0,"o":"m 839 0 l 839 833 l 85 833 l 85 315 l 669 315 l 669 150 l 110 150 l 110 0 z m 254 690 l 669 690 l 669 444 l 254 444 z "}," ":{"ha":346,"x_min":0,"x_max":0,"o":""},"ﭏ":{"ha":851,"x_min":0,"x_max":0,"o":"m 771 424 l 771 833 l 593 833 l 593 497 l 467 393 l 239 682 l 239 953 l 61 953 l 61 644 l 578 0 l 776 0 l 569 263 z "},"א":{"ha":967,"x_min":0,"x_max":0,"o":"m 692 269 l 885 424 l 885 833 l 707 833 l 707 497 l 593 401 l 272 833 l 75 833 l 274 565 l 81 410 l 81 0 l 258 0 l 258 336 l 374 431 l 693 0 l 892 0 z "},"אַ":{"ha":967,"x_min":0,"x_max":0,"o":"m 885 424 l 885 833 l 707 833 l 707 497 l 593 401 l 272 833 l 75 833 l 274 565 l 81 410 l 81 0 l 258 0 l 258 336 l 374 431 l 693 0 l 892 0 l 692 269 z m 644 -187 l 644 -112 l 331 -112 l 331 -187 z "},"אָ":{"ha":967,"x_min":0,"x_max":0,"o":"m 885 424 l 885 833 l 707 833 l 707 497 l 593 401 l 272 833 l 75 833 l 274 565 l 81 410 l 81 0 l 258 0 l 258 336 l 374 431 l 693 0 l 892 0 l 692 269 z m 454 -186 l 449 -354 l 528 -354 l 522 -186 l 643 -186 l 643 -115 l 332 -115 l 332 -186 z "},"אּ":{"ha":967,"x_min":0,"x_max":0,"o":"m 692 269 l 885 424 l 885 833 l 707 833 l 707 497 l 593 401 l 272 833 l 75 833 l 274 565 l 81 410 l 81 0 l 258 0 l 258 336 l 374 431 l 693 0 l 892 0 z m 564 624 b 613 672 590 624 613 646 b 564 721 613 699 590 721 b 515 672 536 721 515 699 b 564 624 515 646 536 624 z "},"ב":{"ha":943,"x_min":0,"x_max":0,"o":"m 774 833 l 69 833 l 69 683 l 596 683 l 596 150 l 69 150 l 69 0 l 892 0 l 892 150 l 774 150 z "},"בּ":{"ha":943,"x_min":0,"x_max":0,"o":"m 774 833 l 69 833 l 69 683 l 596 683 l 596 150 l 69 150 l 69 0 l 892 0 l 892 150 l 774 150 z m 388 417 b 336 468 388 444 364 468 b 285 417 308 468 285 444 b 336 365 285 389 308 365 b 388 417 364 365 388 389 z "},"ג":{"ha":618,"x_min":0,"x_max":0,"o":"m 417 833 l 121 833 l 121 683 l 275 683 l 336 353 l 188 353 l 21 0 l 194 0 l 343 317 l 401 0 l 585 0 z "},"גּ":{"ha":618,"x_min":0,"x_max":0,"o":"m 417 833 l 121 833 l 121 683 l 275 683 l 336 353 l 188 353 l 21 0 l 194 0 l 343 317 l 401 0 l 585 0 z m 233 539 b 182 590 233 567 210 590 b 131 539 154 590 131 567 b 182 488 131 511 154 488 b 233 539 210 488 233 511 z "},"ד":{"ha":878,"x_min":0,"x_max":0,"o":"m 60 833 l 60 683 l 524 683 l 524 0 l 703 0 l 703 683 l 814 683 l 814 833 z "},"דּ":{"ha":878,"x_min":0,"x_max":0,"o":"m 60 833 l 60 683 l 524 683 l 524 0 l 703 0 l 703 683 l 814 683 l 814 833 z m 285 493 b 233 442 257 493 233 469 b 285 390 233 414 257 390 b 336 442 313 390 336 414 b 285 493 336 469 313 493 z "},"ה":{"ha":940,"x_min":0,"x_max":0,"o":"m 854 0 l 854 833 l 85 833 l 85 683 l 675 683 l 675 0 z m 263 0 l 263 461 l 85 461 l 85 0 z "},"הּ":{"ha":940,"x_min":0,"x_max":0,"o":"m 854 0 l 854 833 l 85 833 l 85 683 l 675 683 l 675 0 z m 468 414 b 517 463 494 414 517 435 b 468 511 517 489 494 511 b 419 463 440 511 419 489 b 468 414 419 435 440 414 z m 263 0 l 263 461 l 85 461 l 85 0 z "},"ו":{"ha":351,"x_min":0,"x_max":0,"o":"m 265 0 l 265 833 l 88 833 l 88 0 z "},"וּ":{"ha":390,"x_min":0,"x_max":0,"o":"m 303 0 l 303 833 l 125 833 l 125 0 z m 21 365 b 69 417 49 365 69 389 b 21 468 69 444 49 468 b -26 417 -6 468 -26 444 b 21 365 -26 389 -6 365 z "},"וֹ":{"ha":351,"x_min":0,"x_max":0,"o":"m 178 903 b 236 961 210 903 236 929 b 178 1019 236 994 210 1019 b 119 961 144 1019 119 994 b 178 903 119 929 144 903 z m 265 0 l 265 833 l 88 833 l 88 0 z "},"ז":{"ha":567,"x_min":0,"x_max":0,"o":"m 65 833 l 65 683 l 194 683 l 194 0 l 374 0 l 374 683 l 501 683 l 501 833 z "},"זּ":{"ha":564,"x_min":0,"x_max":0,"o":"m 63 833 l 63 683 l 192 683 l 192 0 l 371 0 l 371 683 l 499 683 l 499 833 z m 68 442 b 18 392 40 442 18 419 b 68 340 18 363 40 340 b 119 392 96 340 119 363 b 68 442 119 419 96 442 z "},"ח":{"ha":958,"x_min":0,"x_max":0,"o":"m 265 0 l 265 683 l 693 683 l 693 0 l 871 0 l 871 833 l 88 833 l 88 0 z "},"ט":{"ha":1007,"x_min":0,"x_max":0,"o":"m 919 833 l 547 833 l 390 453 l 563 453 l 657 683 l 742 683 l 742 150 l 265 150 l 265 833 l 88 833 l 88 0 l 919 0 z "},"טּ":{"ha":1007,"x_min":0,"x_max":0,"o":"m 919 833 l 547 833 l 390 453 l 563 453 l 657 683 l 742 683 l 742 150 l 265 150 l 265 833 l 88 833 l 88 0 l 919 0 z m 556 308 b 504 360 556 336 532 360 b 453 308 476 360 453 336 b 504 257 453 281 476 257 b 556 308 532 257 556 281 z "},"י":{"ha":342,"x_min":0,"x_max":0,"o":"m 260 407 l 260 833 l 82 833 l 82 407 z "},"יּ":{"ha":385,"x_min":0,"x_max":0,"o":"m 303 407 l 303 833 l 125 833 l 125 407 z m 26 561 b 75 611 54 561 75 583 b 26 663 75 640 54 663 b -21 611 0 663 -21 640 b 26 561 -21 583 0 561 z "},"ך":{"ha":743,"x_min":0,"x_max":0,"o":"m 656 -154 l 656 833 l 60 833 l 60 683 l 478 683 l 478 -154 z "},"ךּ":{"ha":743,"x_min":0,"x_max":0,"o":"m 656 -154 l 656 833 l 60 833 l 60 683 l 478 683 l 478 -154 z m 285 442 b 336 493 313 442 336 465 b 285 544 336 521 313 544 b 233 493 257 544 233 521 b 285 442 233 465 257 442 z "},"כ":{"ha":853,"x_min":0,"x_max":0,"o":"m 571 0 l 771 200 l 771 833 l 69 833 l 69 683 l 593 683 l 593 268 l 475 150 l 69 150 l 69 0 z "},"כּ":{"ha":853,"x_min":0,"x_max":0,"o":"m 571 0 l 771 200 l 771 833 l 69 833 l 69 683 l 593 683 l 593 268 l 475 150 l 69 150 l 69 0 z m 293 374 b 344 425 321 374 344 397 b 293 476 344 453 321 476 b 242 425 265 476 242 453 b 293 374 242 397 265 374 z "},"ל":{"ha":849,"x_min":0,"x_max":0,"o":"m 483 0 l 768 325 l 768 833 l 238 833 l 238 953 l 61 953 l 61 683 l 590 683 l 590 361 l 276 8 l 276 0 z "},"לּ":{"ha":849,"x_min":0,"x_max":0,"o":"m 483 0 l 768 325 l 768 833 l 238 833 l 238 953 l 61 953 l 61 683 l 590 683 l 590 361 l 276 8 l 276 0 z m 313 406 b 364 457 340 406 364 429 b 313 508 364 485 340 508 b 261 457 285 508 261 485 b 313 406 261 429 285 406 z "},"ם":{"ha":965,"x_min":0,"x_max":0,"o":"m 878 0 l 878 833 l 88 833 l 88 0 z m 265 683 l 700 683 l 700 150 l 265 150 z "},"מ":{"ha":1001,"x_min":0,"x_max":0,"o":"m 279 442 l 279 833 l 101 833 l 101 406 l 261 406 l 57 0 l 261 0 l 588 683 l 736 683 l 736 150 l 499 150 l 499 0 l 915 0 l 915 833 l 476 833 z "},"מּ":{"ha":1001,"x_min":0,"x_max":0,"o":"m 279 442 l 279 833 l 101 833 l 101 406 l 261 406 l 57 0 l 261 0 l 588 683 l 736 683 l 736 150 l 499 150 l 499 0 l 915 0 l 915 833 l 476 833 z m 660 369 b 608 421 660 397 636 421 b 557 369 581 421 557 397 b 608 318 557 342 581 318 b 660 369 636 318 660 342 z "},"ן":{"ha":351,"x_min":0,"x_max":0,"o":"m 265 -154 l 265 833 l 88 833 l 88 -154 z "},"נ":{"ha":482,"x_min":0,"x_max":0,"o":"m 394 0 l 394 833 l 69 833 l 69 683 l 217 683 l 217 150 l 69 150 l 69 0 z "},"נּ":{"ha":482,"x_min":0,"x_max":0,"o":"m 394 0 l 394 833 l 69 833 l 69 683 l 217 683 l 217 150 l 69 150 l 69 0 z m 89 372 b 140 424 117 372 140 396 b 89 475 140 451 117 475 b 38 424 61 475 38 451 b 89 372 38 396 61 372 z "},"ס":{"ha":963,"x_min":0,"x_max":0,"o":"m 686 0 l 882 194 l 882 833 l 88 833 l 88 0 z m 265 683 l 703 683 l 703 271 l 583 150 l 265 150 z "},"סּ":{"ha":963,"x_min":0,"x_max":0,"o":"m 686 0 l 882 194 l 882 833 l 88 833 l 88 0 z m 265 683 l 703 683 l 703 271 l 583 150 l 265 150 z m 482 365 b 533 417 510 365 533 389 b 482 468 533 444 510 468 b 431 417 454 468 431 444 b 482 365 431 389 454 365 z "},"ע":{"ha":911,"x_min":0,"x_max":0,"o":"m 651 267 l 536 150 l 347 150 l 347 833 l 169 833 l 169 150 l 29 150 l 29 0 l 633 0 l 829 196 l 829 833 l 651 833 z "},"ף":{"ha":904,"x_min":0,"x_max":0,"o":"m 61 683 l 128 683 l 128 378 l 307 378 l 307 683 l 639 683 l 639 -154 l 817 -154 l 817 833 l 61 833 z "},"ףּ":{"ha":904,"x_min":0,"x_max":0,"o":"m 61 683 l 128 683 l 128 378 l 307 378 l 307 683 l 639 683 l 639 -154 l 817 -154 l 817 833 l 61 833 z m 456 431 b 404 379 428 431 404 407 b 456 328 404 351 428 328 b 507 379 483 328 507 351 b 456 431 507 407 483 431 z "},"פ":{"ha":983,"x_min":0,"x_max":0,"o":"m 69 683 l 143 683 l 143 401 l 322 401 l 322 683 l 719 683 l 719 150 l 69 150 l 69 0 l 897 0 l 897 833 l 69 833 z "},"פּ":{"ha":983,"x_min":0,"x_max":0,"o":"m 69 683 l 143 683 l 143 401 l 322 401 l 322 683 l 719 683 l 719 150 l 69 150 l 69 0 l 897 0 l 897 833 l 69 833 z m 561 421 b 514 469 561 447 540 469 b 467 421 488 469 467 447 b 514 374 467 394 488 374 b 561 421 540 374 561 394 z "},"ץ":{"ha":857,"x_min":0,"x_max":0,"o":"m 610 833 l 610 519 l 265 350 l 265 833 l 88 833 l 88 -139 l 265 -139 l 265 178 l 789 433 l 789 833 z "},"צ":{"ha":888,"x_min":0,"x_max":0,"o":"m 629 833 l 629 496 l 522 422 l 244 833 l 39 833 l 506 150 l 47 150 l 47 0 l 808 0 l 610 294 l 808 422 l 808 833 z "},"צּ":{"ha":888,"x_min":0,"x_max":0,"o":"m 629 833 l 629 496 l 522 422 l 244 833 l 39 833 l 506 150 l 47 150 l 47 0 l 808 0 l 610 294 l 808 422 l 808 833 z m 246 310 b 194 361 246 338 222 361 b 143 310 167 361 143 338 b 194 258 143 282 167 258 b 246 310 222 258 246 282 z "},"ק":{"ha":922,"x_min":0,"x_max":0,"o":"m 600 0 l 842 244 l 842 833 l 85 833 l 85 683 l 664 683 l 664 289 l 394 4 l 394 0 z m 263 -154 l 263 467 l 85 467 l 85 -154 z "},"קּ":{"ha":922,"x_min":0,"x_max":0,"o":"m 600 0 l 842 244 l 842 833 l 85 833 l 85 683 l 664 683 l 664 289 l 394 4 l 394 0 z m 463 399 b 514 450 490 399 514 422 b 463 501 514 478 490 501 b 411 450 435 501 411 478 b 463 399 411 422 435 399 z m 263 -154 l 263 467 l 85 467 l 85 -154 z "},"ר":{"ha":832,"x_min":0,"x_max":0,"o":"m 744 0 l 744 833 l 60 833 l 60 683 l 567 683 l 567 0 z "},"רּ":{"ha":832,"x_min":0,"x_max":0,"o":"m 744 0 l 744 833 l 60 833 l 60 683 l 567 683 l 567 0 z m 329 365 b 381 417 357 365 381 389 b 329 468 381 444 357 468 b 278 417 301 468 278 444 b 329 365 278 389 301 365 z "},"ש":{"ha":1181,"x_min":0,"x_max":0,"o":"m 922 224 l 850 150 l 674 150 l 674 833 l 497 833 l 497 150 l 264 150 l 264 833 l 88 833 l 88 0 l 947 0 l 1100 151 l 1100 833 l 922 833 z "},"שׁ":{"ha":1181,"x_min":0,"x_max":0,"o":"m 1011 903 b 1069 961 1043 903 1069 929 b 1011 1019 1069 994 1043 1019 b 951 961 978 1019 951 994 b 1011 903 951 929 978 903 z m 922 224 l 850 150 l 674 150 l 674 833 l 497 833 l 497 150 l 264 150 l 264 833 l 88 833 l 88 0 l 947 0 l 1100 151 l 1100 833 l 922 833 z "},"שׂ":{"ha":1181,"x_min":0,"x_max":0,"o":"m 182 903 b 240 961 214 903 240 929 b 182 1019 240 994 214 1019 b 124 961 149 1019 124 994 b 182 903 124 929 149 903 z m 922 224 l 850 150 l 674 150 l 674 833 l 497 833 l 497 150 l 264 150 l 264 833 l 88 833 l 88 0 l 947 0 l 1100 151 l 1100 833 l 922 833 z "},"שּׁ":{"ha":1181,"x_min":0,"x_max":0,"o":"m 1011 903 b 1069 961 1043 903 1069 929 b 1011 1019 1069 994 1043 1019 b 951 961 978 1019 951 994 b 1011 903 951 929 978 903 z m 922 224 l 850 150 l 674 150 l 674 833 l 497 833 l 497 150 l 264 150 l 264 833 l 88 833 l 88 0 l 947 0 l 1100 151 l 1100 833 l 922 833 z m 794 401 b 846 453 822 401 846 425 b 794 504 846 481 822 504 b 743 453 767 504 743 481 b 794 401 743 425 767 401 z "},"שּׂ":{"ha":1181,"x_min":0,"x_max":0,"o":"m 182 903 b 240 961 214 903 240 929 b 182 1019 240 994 214 1019 b 124 961 149 1019 124 994 b 182 903 124 929 149 903 z m 922 224 l 850 150 l 674 150 l 674 833 l 497 833 l 497 150 l 264 150 l 264 833 l 88 833 l 88 0 l 947 0 l 1100 151 l 1100 833 l 922 833 z m 794 401 b 846 453 822 401 846 425 b 794 504 846 481 822 504 b 743 453 767 504 743 481 b 794 401 743 425 767 401 z "},"שּ":{"ha":1181,"x_min":0,"x_max":0,"o":"m 922 224 l 850 150 l 674 150 l 674 833 l 497 833 l 497 150 l 264 150 l 264 833 l 88 833 l 88 0 l 947 0 l 1100 151 l 1100 833 l 922 833 z m 794 401 b 846 453 822 401 846 425 b 794 504 846 481 822 504 b 743 453 767 504 743 481 b 794 401 743 425 767 401 z "},"ת":{"ha":1067,"x_min":0,"x_max":0,"o":"m 360 0 l 360 683 l 801 683 l 801 0 l 979 0 l 979 833 l 182 833 l 182 150 l 29 150 l 29 0 z "},"תּ":{"ha":1067,"x_min":0,"x_max":0,"o":"m 360 0 l 360 683 l 801 683 l 801 0 l 979 0 l 979 833 l 182 833 l 182 150 l 29 150 l 29 0 z m 582 332 b 633 383 610 332 633 356 b 582 435 633 411 610 435 b 531 383 554 435 531 411 b 582 332 531 356 554 332 z "},".":{"ha":342,"x_min":0,"x_max":0,"o":"m 264 0 l 264 197 l 79 197 l 79 0 z "},",":{"ha":338,"x_min":0,"x_max":0,"o":"m 197 -179 l 258 15 l 258 217 l 79 217 l 79 0 l 144 0 l 106 -179 z "},":":{"ha":393,"x_min":0,"x_max":0,"o":"m 289 521 l 289 718 l 104 718 l 104 521 z m 289 0 l 289 197 l 104 197 l 104 0 z "},";":{"ha":393,"x_min":0,"x_max":0,"o":"m 289 521 l 289 718 l 104 718 l 104 521 z m 222 -179 l 285 15 l 285 217 l 104 217 l 104 0 l 171 0 l 131 -179 z "},"…":{"ha":931,"x_min":0,"x_max":0,"o":"m 257 0 l 257 197 l 78 197 l 78 0 z m 556 0 l 556 197 l 376 197 l 376 0 z m 854 0 l 854 197 l 675 197 l 675 0 z "},"!":{"ha":350,"x_min":0,"x_max":0,"o":"m 250 267 l 264 408 l 264 953 l 86 953 l 86 408 l 101 267 z m 264 0 l 264 181 l 86 181 l 86 0 z "},"?":{"ha":738,"x_min":0,"x_max":0,"o":"m 403 283 l 678 567 l 678 953 l 44 953 l 44 801 l 500 801 l 500 592 l 219 308 l 219 283 z m 399 0 l 399 174 l 219 174 l 219 0 z "},"·":{"ha":333,"x_min":0,"x_max":0,"o":"m 264 317 l 264 514 l 79 514 l 79 317 z "},"•":{"ha":886,"x_min":0,"x_max":0,"o":"m 443 0 b 860 417 674 0 860 186 b 443 833 860 647 674 833 b 26 417 213 833 26 647 b 443 0 26 186 213 0 z "},"*":{"ha":600,"x_min":0,"x_max":0,"o":"m 494 889 l 347 804 l 347 972 l 251 972 l 251 804 l 106 889 l 58 804 l 204 721 l 58 636 l 106 553 l 251 638 l 251 469 l 347 469 l 347 638 l 494 553 l 542 636 l 396 721 l 542 804 z "},"#":{"ha":933,"x_min":0,"x_max":0,"o":"m 904 646 l 776 646 l 829 833 l 699 833 l 646 646 l 411 646 l 464 833 l 333 833 l 281 646 l 119 646 l 119 532 l 249 532 l 190 328 l 28 328 l 28 213 l 157 213 l 97 0 l 229 0 l 289 213 l 522 213 l 463 0 l 593 0 l 653 213 l 814 213 l 814 328 l 686 328 l 744 532 l 904 532 z m 321 328 l 379 532 l 614 532 l 556 328 z "},"/":{"ha":611,"x_min":0,"x_max":0,"o":"m 582 833 l 454 833 l 0 0 l 126 0 z "},"\\":{"ha":640,"x_min":0,"x_max":0,"o":"m 611 0 l 156 833 l 29 833 l 483 0 z "},"(":{"ha":418,"x_min":0,"x_max":0,"o":"m 372 -139 b 246 417 286 39 246 221 b 372 972 246 613 286 794 l 229 972 b 76 417 119 794 76 614 b 229 -139 76 219 119 39 z "},")":{"ha":418,"x_min":0,"x_max":0,"o":"m 189 -139 b 343 417 300 39 343 219 b 189 972 343 614 300 794 l 46 972 b 172 417 133 794 172 613 b 46 -139 172 221 133 39 z "},"{":{"ha":497,"x_min":0,"x_max":0,"o":"m 472 847 l 472 972 l 257 972 l 133 839 l 133 476 l 47 476 l 47 357 l 133 357 l 133 -6 l 257 -139 l 472 -139 l 472 -14 l 363 -14 l 292 58 l 292 775 l 363 847 z "},"}":{"ha":497,"x_min":0,"x_max":0,"o":"m 363 476 l 363 839 l 240 972 l 24 972 l 24 847 l 135 847 l 204 775 l 204 58 l 135 -14 l 24 -14 l 24 -139 l 240 -139 l 363 -6 l 363 357 l 449 357 l 449 476 z "},"[":{"ha":458,"x_min":0,"x_max":0,"o":"m 425 -139 l 425 -14 l 243 -14 l 243 847 l 425 847 l 425 972 l 86 972 l 86 -139 z "},"]":{"ha":458,"x_min":0,"x_max":0,"o":"m 33 972 l 33 847 l 214 847 l 214 -14 l 33 -14 l 33 -139 l 372 -139 l 372 972 z "},"-":{"ha":635,"x_min":0,"x_max":0,"o":"m 574 357 l 574 476 l 61 476 l 61 357 z "},"–":{"ha":771,"x_min":0,"x_max":0,"o":"m 710 357 l 710 476 l 61 476 l 61 357 z "},"—":{"ha":942,"x_min":0,"x_max":0,"o":"m 882 357 l 882 476 l 61 476 l 61 357 z "},"_":{"ha":593,"x_min":0,"x_max":0,"o":"m 547 0 l 547 150 l 47 150 l 47 0 z "},"‚":{"ha":319,"x_min":0,"x_max":0,"o":"m 140 -165 l 246 165 l 104 165 l 28 -165 z "},"„":{"ha":483,"x_min":0,"x_max":0,"o":"m 131 -165 l 228 165 l 96 165 l 25 -165 z m 321 -165 l 418 165 l 288 165 l 217 -165 z "},"“":{"ha":453,"x_min":0,"x_max":0,"o":"m 151 622 l 249 953 l 117 953 l 46 622 z m 342 622 l 439 953 l 308 953 l 238 622 z "},"”":{"ha":453,"x_min":0,"x_max":0,"o":"m 151 622 l 249 953 l 117 953 l 46 622 z m 342 622 l 439 953 l 308 953 l 238 622 z "},"‘":{"ha":288,"x_min":0,"x_max":0,"o":"m 163 622 l 267 953 l 125 953 l 49 622 z "},"’":{"ha":288,"x_min":0,"x_max":0,"o":"m 163 622 l 267 953 l 125 953 l 49 622 z "},"\"":{"ha":453,"x_min":0,"x_max":0,"o":"m 151 622 l 249 953 l 117 953 l 46 622 z m 342 622 l 439 953 l 308 953 l 238 622 z "},"'":{"ha":288,"x_min":0,"x_max":0,"o":"m 163 622 l 267 953 l 125 953 l 49 622 z "},"׳":{"ha":288,"x_min":0,"x_max":0,"o":"m 163 622 l 267 953 l 125 953 l 49 622 z "},"״":{"ha":453,"x_min":0,"x_max":0,"o":"m 151 622 l 249 953 l 117 953 l 46 622 z m 342 622 l 439 953 l 308 953 l 238 622 z "},"־":{"ha":542,"x_min":0,"x_max":0,"o":"m 476 683 l 476 833 l 65 833 l 65 683 z "},"₿":{"ha":913,"x_min":0,"x_max":0,"o":"m 585 833 l 585 972 l 513 972 l 513 833 l 426 833 l 426 972 l 354 972 l 354 833 l 86 833 l 86 0 l 354 0 l 354 -139 l 426 -139 l 426 0 l 513 0 l 513 -139 l 585 -139 l 585 0 l 828 0 l 828 358 l 754 439 l 828 518 l 828 833 z m 264 494 l 264 683 l 647 683 l 649 533 l 608 494 z m 264 150 l 264 371 l 608 371 l 649 332 l 647 150 z "},"$":{"ha":788,"x_min":0,"x_max":0,"o":"m 714 833 l 442 833 l 442 972 l 351 972 l 351 833 l 74 833 l 74 496 l 529 281 l 529 150 l 74 150 l 74 0 l 351 0 l 351 -139 l 442 -139 l 442 0 l 714 0 l 714 342 l 258 558 l 258 683 l 714 683 z "},"€":{"ha":764,"x_min":0,"x_max":0,"o":"m 710 683 l 710 833 l 214 833 l 92 700 l 92 531 l 26 531 l 26 453 l 92 453 l 92 381 l 26 381 l 26 303 l 92 303 l 92 133 l 214 0 l 710 0 l 710 150 l 319 150 l 256 215 l 256 303 l 519 303 l 556 381 l 256 381 l 256 453 l 588 453 l 624 531 l 256 531 l 256 618 l 319 683 z "},"₪":{"ha":1078,"x_min":0,"x_max":0,"o":"m 232 0 l 232 544 l 601 544 l 601 240 l 731 240 l 731 674 l 92 674 l 92 0 z m 353 0 l 986 0 l 986 674 l 846 674 l 846 126 l 483 126 l 483 447 l 354 447 z "},"ℶ":{"ha":1389,"x_min":0,"x_max":0,"o":"m 1325 729 b 576 818 1107 822 815 831 b 738 894 692 865 733 890 b 746 942 753 910 757 925 b 700 950 735 958 715 961 b 538 875 694 946 640 915 b 594 1018 561 921 586 967 b 574 1061 597 1035 590 1054 b 528 1042 557 1068 536 1060 b 438 840 514 1013 468 894 b 125 771 371 821 164 776 b 93 725 99 767 86 750 b 136 699 99 704 115 696 b 367 731 154 701 289 722 b 279 636 318 683 290 657 b 282 586 267 614 267 597 b 336 590 300 572 317 579 b 446 725 360 604 392 649 b 456 619 446 690 447 657 b 497 590 461 596 478 585 b 528 635 519 597 535 617 b 518 740 514 669 515 707 b 1307 657 746 760 1042 750 b 1357 682 1335 647 1351 656 b 1325 729 1361 701 1354 717 z m 954 649 b 403 464 706 685 450 500 b 388 403 383 449 376 422 b 451 396 400 381 431 378 b 917 574 554 485 749 589 b 957 496 976 568 975 539 b 428 -49 886 328 601 43 b 381 0 383 -72 375 -33 b 682 372 401 131 538 319 b 596 265 667 343 633 303 b 589 197 569 239 569 215 b 653 201 606 182 633 183 b 754 433 669 217 811 367 b 464 315 703 494 563 419 b 311 -92 336 181 261 -3 b 449 -128 336 -136 381 -157 b 1054 556 589 -68 1049 356 b 954 649 1056 603 1011 640 z "},"+":{"ha":793,"x_min":0,"x_max":0,"o":"m 460 475 l 460 744 l 333 744 l 333 475 l 61 475 l 61 357 l 333 357 l 333 88 l 460 88 l 460 357 l 732 357 l 732 475 z "},"−":{"ha":635,"x_min":0,"x_max":0,"o":"m 574 357 l 574 476 l 61 476 l 61 357 z "},"×":{"ha":696,"x_min":0,"x_max":0,"o":"m 547 701 l 347 501 l 147 701 l 63 617 l 263 417 l 63 217 l 147 132 l 347 332 l 547 132 l 632 217 l 432 417 l 632 617 z "},"=":{"ha":660,"x_min":0,"x_max":0,"o":"m 600 489 l 600 608 l 60 608 l 60 489 z m 60 343 l 60 224 l 600 224 l 600 343 z "},">":{"ha":603,"x_min":0,"x_max":0,"o":"m 549 372 l 549 461 l 61 699 l 61 574 l 390 417 l 61 258 l 61 133 z "},"<":{"ha":603,"x_min":0,"x_max":0,"o":"m 542 258 l 214 417 l 542 574 l 542 699 l 54 461 l 54 372 l 542 133 z "},"~":{"ha":838,"x_min":0,"x_max":0,"o":"m 315 433 l 604 263 l 797 549 l 653 649 l 522 451 l 235 622 l 40 336 l 185 236 z "},"^":{"ha":599,"x_min":0,"x_max":0,"o":"m 183 604 l 300 806 l 417 604 l 560 604 l 344 953 l 256 953 l 39 604 z "},"%":{"ha":938,"x_min":0,"x_max":0,"o":"m 836 833 l 703 833 l 442 471 l 442 833 l 51 833 l 51 439 l 418 439 l 101 0 l 235 0 l 496 363 l 496 17 l 886 17 l 886 411 l 532 411 z m 161 532 l 161 742 l 332 742 l 332 532 z m 606 108 l 606 318 l 776 318 l 776 108 z "},"→":{"ha":1239,"x_min":0,"x_max":0,"o":"m 867 469 l 61 517 l 61 317 l 867 364 l 867 190 l 1185 411 l 1185 422 l 867 642 z "},"←":{"ha":1239,"x_min":0,"x_max":0,"o":"m 372 469 l 372 642 l 54 422 l 54 411 l 372 190 l 372 364 l 1178 317 l 1178 517 z "},"@":{"ha":1092,"x_min":0,"x_max":0,"o":"m 378 201 l 1003 201 l 1003 808 l 931 889 l 161 889 l 89 808 l 89 25 l 161 -56 l 744 -56 l 744 58 l 235 58 l 235 775 l 856 775 l 856 276 l 708 276 l 708 632 l 378 632 z m 618 558 l 618 276 l 471 276 l 471 558 z "},"©":{"ha":1092,"x_min":0,"x_max":0,"o":"m 931 -56 l 1003 25 l 1003 808 l 931 889 l 161 889 l 89 808 l 89 25 l 161 -56 z m 235 775 l 856 775 l 856 58 l 235 58 z m 708 201 l 708 368 l 618 368 l 618 276 l 471 276 l 471 558 l 618 558 l 618 475 l 708 475 l 708 632 l 378 632 l 378 201 z "},"°":{"ha":485,"x_min":0,"x_max":0,"o":"m 415 501 l 415 833 l 68 833 l 68 501 z m 161 753 l 324 753 l 324 582 l 161 582 z "},"|":{"ha":360,"x_min":0,"x_max":0,"o":"m 243 -139 l 243 972 l 117 972 l 117 -139 z "},"ׁ":{"ha":0,"x_min":0,"x_max":0,"o":"m 671 903 b 729 961 703 903 729 929 b 671 1019 729 994 703 1019 b 611 961 638 1019 611 994 b 671 903 611 929 638 903 z "},"ְ":{"ha":0,"x_min":0,"x_max":0,"o":"m 417 -211 b 471 -157 447 -211 471 -187 b 417 -103 471 -126 447 -103 b 363 -157 386 -103 363 -126 b 417 -211 363 -187 386 -211 z m 417 -378 b 471 -324 447 -378 471 -354 b 417 -269 471 -293 447 -269 b 363 -324 386 -269 363 -293 b 417 -378 363 -354 386 -378 z "},"ֱ":{"ha":0,"x_min":0,"x_max":0,"o":"m 249 -211 b 303 -157 278 -211 303 -187 b 249 -103 303 -128 278 -103 b 193 -157 218 -103 193 -128 b 249 -211 193 -187 218 -211 z m 415 -211 b 469 -157 444 -211 469 -187 b 415 -103 469 -128 444 -103 b 361 -157 386 -103 361 -128 b 415 -211 361 -187 386 -211 z m 579 -211 b 635 -157 610 -211 635 -187 b 579 -103 635 -126 610 -103 b 525 -157 550 -103 525 -126 b 579 -211 525 -187 550 -211 z m 332 -354 b 386 -300 361 -354 386 -331 b 332 -246 386 -271 361 -246 b 278 -300 301 -246 278 -271 b 332 -354 278 -331 301 -354 z m 579 -378 b 635 -324 610 -378 635 -354 b 579 -269 635 -293 610 -269 b 525 -324 550 -269 525 -293 b 579 -378 525 -354 550 -378 z "},"ֲ":{"ha":0,"x_min":0,"x_max":0,"o":"m 572 -211 b 626 -157 601 -211 626 -187 b 572 -103 626 -126 601 -103 b 518 -157 542 -103 518 -126 b 572 -211 518 -187 542 -211 z m 469 -192 l 469 -115 l 174 -115 l 174 -192 z m 572 -378 b 626 -324 601 -378 626 -354 b 572 -269 626 -293 601 -269 b 518 -324 542 -269 518 -293 b 572 -378 518 -354 542 -378 z "},"ֳ":{"ha":0,"x_min":0,"x_max":0,"o":"m 579 -211 b 633 -157 610 -211 633 -187 b 579 -103 633 -126 610 -103 b 525 -157 549 -103 525 -126 b 579 -211 525 -187 549 -211 z m 292 -186 l 286 -354 l 364 -354 l 357 -186 l 475 -186 l 475 -115 l 172 -115 l 172 -186 z m 579 -269 b 525 -324 549 -269 525 -293 b 579 -378 525 -354 549 -378 b 633 -324 610 -378 633 -354 b 579 -269 633 -293 610 -269 z "},"ִ":{"ha":0,"x_min":0,"x_max":0,"o":"m 417 -219 b 475 -162 449 -219 475 -194 b 417 -104 475 -129 449 -104 b 358 -162 385 -104 358 -129 b 417 -219 358 -194 385 -219 z "},"ֵ":{"ha":0,"x_min":0,"x_max":0,"o":"m 333 -211 b 388 -157 363 -211 388 -187 b 333 -103 388 -128 363 -103 b 279 -157 303 -103 279 -128 b 333 -211 279 -187 303 -211 z m 500 -211 b 554 -157 531 -211 554 -187 b 500 -103 554 -128 531 -103 b 446 -157 471 -103 446 -128 b 500 -211 446 -187 471 -211 z "},"ֶ":{"ha":0,"x_min":0,"x_max":0,"o":"m 333 -211 b 388 -157 363 -211 388 -187 b 333 -103 388 -128 363 -103 b 279 -157 303 -103 279 -128 b 333 -211 279 -187 303 -211 z m 500 -211 b 554 -157 531 -211 554 -187 b 500 -103 554 -128 531 -103 b 446 -157 471 -103 446 -128 b 500 -211 446 -187 471 -211 z m 417 -354 b 471 -300 446 -354 471 -331 b 417 -246 471 -271 446 -246 b 363 -300 388 -246 363 -271 b 417 -354 363 -331 388 -354 z "},"ַ":{"ha":0,"x_min":0,"x_max":0,"o":"m 574 -187 l 574 -112 l 260 -112 l 260 -187 z "},"ָ":{"ha":0,"x_min":0,"x_max":0,"o":"m 261 -115 l 261 -186 l 383 -186 l 378 -354 l 457 -354 l 451 -186 l 572 -186 l 572 -115 z "},"ֹ":{"ha":0,"x_min":0,"x_max":0,"o":"m 199 903 b 257 961 231 903 257 929 b 199 1019 257 994 231 1019 b 140 961 165 1019 140 994 b 199 903 140 929 165 903 z "},"ֺ":{"ha":0,"x_min":0,"x_max":0,"o":"m 199 903 b 257 961 231 903 257 929 b 199 1019 257 994 231 1019 b 140 961 165 1019 140 994 b 199 903 140 929 165 903 z "},"ֻ":{"ha":0,"x_min":0,"x_max":0,"o":"m 417 -210 b 471 -156 446 -210 471 -185 b 417 -101 471 -125 446 -101 b 361 -156 386 -101 361 -125 b 417 -210 361 -185 386 -210 z m 536 -314 b 590 -260 565 -314 590 -289 b 536 -206 590 -229 565 -206 b 482 -260 506 -206 482 -229 b 536 -314 482 -289 506 -314 z m 656 -417 b 710 -364 685 -417 710 -393 b 656 -310 710 -333 685 -310 b 601 -364 625 -310 601 -333 b 656 -417 601 -393 625 -417 z "},"ּ":{"ha":0,"x_min":0,"x_max":0,"o":"m 417 360 b 468 411 444 360 468 383 b 417 463 468 439 444 463 b 365 411 389 463 365 439 b 417 360 365 383 389 360 z "},"ֿ":{"ha":0,"x_min":0,"x_max":0,"o":"m 600 914 l 600 975 l 233 975 l 233 914 z "},"ׂ":{"ha":0,"x_min":0,"x_max":0,"o":"m 199 903 b 257 961 231 903 257 929 b 199 1019 257 994 231 1019 b 140 961 165 1019 140 994 b 199 903 140 929 165 903 z "}}}
